<?xml version="1.0" encoding="utf-8"?>
<!-- Generator: Adobe Illustrator 21.0.2, SVG Export Plug-In . SVG Version: 6.00 Build 0)  -->
<svg version="1.1" id="All_glyphs" xmlns="http://www.w3.org/2000/svg" xmlns:xlink="http://www.w3.org/1999/xlink" x="0px" y="0px"
	 viewBox="0 0 834.4 196.6" style="enable-background:new 0 0 834.4 196.6;" xml:space="preserve">
<style type="text/css">
	.st0{fill:#FFFFFF;}
	.st1{font-family:'PTMono-Bold';}
	.st2{font-size:119.3063px;}
	.st3{fill:#37CC46;}
	.st4{fill:#FDFDFF;}
	.st5{fill:none;stroke:#FDFDFF;stroke-miterlimit:10;}
	.st6{fill:none;stroke:#FCFCFC;stroke-miterlimit:10;}
	.st7{fill:none;stroke:#FCFCFC;stroke-width:3;stroke-miterlimit:10;}
	.st8{fill:none;stroke:#FCFCFC;stroke-width:2;stroke-miterlimit:10;}
	.st9{fill:#00FF00;}
	.st10{fill:#F9F9F9;}
</style>
<text transform="matrix(0.6843 0 0 1 124.7582 132.5417)" class="st0 st1 st2">DOCTOR</text>
<text transform="matrix(0.4159 0 0 0.97 422.0853 132.5417)" class="st0 st1 st2"> </text>
<text transform="matrix(0.6843 0 0 1 452.2045 132.5417)" class="st0 st1 st2">NOTE</text>
<g>
	<ellipse class="st3" cx="815.9" cy="135.8" rx="18.5" ry="18.8"/>
	<ellipse class="st4" cx="815.9" cy="135.8" rx="8.7" ry="10"/>
	<rect x="697.2" y="5.8" class="st0" width="9.4" height="10.7"/>
	<rect x="717.5" y="5.8" class="st4" width="9.4" height="10.7"/>
	<path class="st5" d="M728.2,11.7c7.3-0.5,15.3-0.7,21.3,4.1c4.3,3.4,6.9,8.8,9.2,14.2c1.7,3.9,3.3,8,3.9,12.4
		c0.6,4.7-0.2,9.4-0.9,14.1c-1.9,11.6-3.8,23.3-8.1,34"/>
	<path class="st6" d="M696.3,11.5c-5.8,0.5-11.8,1.1-17.1,4C668.1,21.4,662.2,36,661.9,50c-0.3,13.9,4,27.4,8.4,40.4"/>
	<path class="st7" d="M753.5,90.4c-0.3,4-1.7,19.8-13.3,33c-11.5,13.1-25.3,14.8-28.8,15c-4.7-0.8-14.5-3.3-23.8-12
		c-14.1-13.2-16.8-31.3-17.3-36"/>
	<path class="st8" d="M713.4,144.2c-0.4,7.3,0,19.2,5.9,30c2.9,5.4,5.5,7.4,6.5,8.1c5.3,3.8,12,3,18.2,2c9.6-1.5,20.5-3.9,25.2-13.5
		c3.1-6.4,2.6-14.2,2.3-21.6c-0.5-13.7,0.2-27.4,2.3-40.9c1.4-9.1,3.8-18.9,10.5-24c7.5-5.9,18.5-3.4,24.8,4.1
		c6.3,7.5,8.3,18.8,6.8,29.1"/>
</g>
<g>
	<g>
		<g>
			<path class="st3" d="M20.8,79.7L48.3,52L27.5,31.2c0,0-7.9-1.6-18.4,9S0.1,58.8,0.1,58.8L20.8,79.7z"/>
			<path class="st3" d="M57.1,116.3l20-20.2l7.5-7.5l0,0l0,0l29.5-29.8c0,0,1.6-8-8.9-18.6c-10.7-10.6-18.6-9-18.6-9l-37,37.1
				L7.3,111L0,146l34.8-7.5L57.1,116.3L57.1,116.3L57.1,116.3z M32.8,134.4l-11.8,2.5c-1.2-2.2-2.5-4.3-5.1-6.9
				c-2.5-2.5-4.7-4-6.9-5.2l2.6-11.9l3.4-3.4c0,0,6.4,0.1,13.8,7.5s7.5,13.9,7.5,13.9L32.8,134.4z"/>
			<path class="st3" d="M106.7,111L92.8,97l-27.4,27.7l13.9,14l34.8,7.4L106.7,111z M98.4,130.1c-2.5,2.5-3.9,4.7-5.1,6.9l-11.8-2.7
				l-3.4-3.4c0,0,0.1-6.5,7.5-13.9s13.8-7.5,13.8-7.5l3.4,3.4l2.5,11.9C103.1,126.1,100.9,127.5,98.4,130.1z"/>
			<path class="st3" d="M53.4,86.4c-1.3-1.5,1.2-6.4,4.4-9.3c3.7-3.4,9.5-5.3,10.8-3.7c1.3,1.6-1.6,6.6-5,9.6
				C60.2,85.9,54.8,88,53.4,86.4z"/>
		</g>
	</g>
	<path class="st9" d="M64,99.7h-6c0.2-8.8-0.2-19.7,0-28.5c1.9,0.1,4.1-0.1,6,0C64,79.9,64.1,91,64,99.7z"/>
	<rect x="46.8" y="82" class="st9" width="28.3" height="5.5"/>
	<ellipse class="st10" cx="61" cy="85.4" rx="16.8" ry="17"/>
	<path class="st3" d="M64,99.7h-6c0.2-8.8-0.2-19.7,0-28.5c1.9,0.1,4.1-0.1,6,0C64,79.9,64.1,91,64,99.7z"/>
	<rect x="46.8" y="82" class="st3" width="28.3" height="5.5"/>
</g>
</svg>
